<svg xmlns="http://www.w3.org/2000/svg" xml:space="preserve" viewBox="0 0 415 75">
  <path d="M160.42 24.69c-10.09 0-18.26 8.18-18.26 18.26s8.18 18.26 18.26 18.26c10.09 0 18.26-8.18 18.26-18.26s-8.17-18.26-18.26-18.26zm0 29.44c-6.17 0-11.18-5-11.18-11.18 0-6.17 5-11.18 11.18-11.18s11.18 5 11.18 11.18-5.01 11.18-11.18 11.18zm41.27-29.44c-10.09 0-18.26 8.18-18.26 18.26s8.18 18.26 18.26 18.26c10.09 0 18.26-8.18 18.26-18.26s-8.17-18.26-18.26-18.26zm0 29.44c-6.17 0-11.18-5-11.18-11.18 0-6.17 5-11.18 11.18-11.18s11.18 5 11.18 11.18-5.01 11.18-11.18 11.18zm-79.68-29.44c-4.76 0-9.01 2.16-11.83 5.55-2.83-3.39-7.08-5.55-11.83-5.55-8.51 0-15.41 6.9-15.41 15.41v21.12h7.09V40.1a8.32 8.32 0 0 1 8.32-8.32c4.39 0 7.98 3.41 8.29 7.72-.01.2-.03.4-.03.6v21.12h7.15V40.1c0-.2-.02-.4-.03-.6.31-4.31 3.9-7.72 8.29-7.72a8.32 8.32 0 0 1 8.32 8.32v21.12h7.09V40.1c-.02-8.51-6.92-15.41-15.42-15.41zm118.09 0c-8.51 0-15.41 6.9-15.41 15.41v21.12h7.09V40.1a8.32 8.32 0 0 1 16.64 0v21.12h7.09V40.1c0-8.51-6.9-15.41-15.41-15.41zm172.46 18.27c0-10.09-8.18-18.26-18.26-18.26-10.09 0-18.26 8.18-18.26 18.26s8.18 18.26 18.26 18.26c5.04 0 9.61-2.04 12.91-5.35l-5.01-5.01a11.149 11.149 0 0 1-7.9 3.27c-4.94 0-9.12-3.21-10.6-7.65h28.52c.21-1.14.34-2.32.34-3.52zm-18.27-11.18c4.94 0 9.12 3.21 10.6 7.65h-21.2c1.48-4.44 5.66-7.65 10.6-7.65zm-115.77-7.09c-4.21 0-8.09 1.44-11.18 3.84v-18.3h-7.09v32.73c0 10.09 8.18 18.26 18.26 18.26 10.09 0 18.26-8.18 18.26-18.26s-8.16-18.27-18.25-18.27zm0 29.44c-6.17 0-11.18-5-11.18-11.18 0-6.17 5-11.18 11.18-11.18s11.18 5 11.18 11.18c-.01 6.18-5.01 11.18-11.18 11.18zm59.53-11.17c0-10.09-8.18-18.26-18.26-18.26-10.09 0-18.26 8.18-18.26 18.26s8.18 18.26 18.26 18.26c4.21 0 8.08-1.44 11.18-3.84v3.84h7.09l-.01-18.26zm-18.26 11.17c-6.17 0-11.18-5-11.18-11.18 0-6.17 5-11.18 11.18-11.18s11.18 5 11.18 11.18-5.01 11.18-11.18 11.18zM60.39 25.62v8.97c0 1.55-.83 2.98-2.17 3.76l-9.54 5.51c-1.34.77-3 .77-4.34 0l-9.54-5.51a4.342 4.342 0 0 1-2.17-3.76V23.58c0-1.55.83-2.98 2.17-3.76l9.54-5.51c1.34-.77 3-.77 4.34 0l2.99 1.73a32.145 32.145 0 0 0-19.03-6.21C14.81 9.83.36 24.28.36 42.11c0 17.83 14.45 32.28 32.28 32.28s32.28-14.45 32.28-32.28c0-6.03-1.66-11.67-4.53-16.49z"/>
  <path d="M73.07 21.56V10.54c0-1.55-.83-2.98-2.17-3.76l-9.54-5.51c-1.34-.77-3-.77-4.34 0l-9.54 5.51a4.342 4.342 0 0 0-2.17 3.76v11.01c0 1.55.83 2.98 2.17 3.76l9.54 5.51c1.34.77 3 .77 4.34 0l9.54-5.51c1.34-.77 2.17-2.2 2.17-3.75zm298.84 9.98v-6.85h-18.28c-5.53 0-10 4.48-10 10 0 4.49 2.99 8.43 7.32 9.64l11.31 3.15c1.51.42 2.56 1.8 2.56 3.37 0 1.93-1.57 3.5-3.5 3.5h-17.69v6.87h17.72c5.83 0 10.56-4.73 10.56-10.56 0-4.74-3.16-8.9-7.73-10.17l-11.3-3.15a2.96 2.96 0 0 1 .8-5.81h18.23v.01z"/>
</svg>
