<svg viewBox="0 0 320 51" xmlns="http://www.w3.org/2000/svg">
  <path fill="#fff" d="m77.6701,0.22005c-10.09,0 -18.26,8.18 -18.26,18.26s8.18,18.26 18.26,18.26c10.09,0 18.26,-8.18 18.26,-18.26s-8.17,-18.26 -18.26,-18.26zm0,29.44c-6.17,0 -11.18,-5 -11.18,-11.18c0,-6.17 5,-11.18 11.18,-11.18s11.18,5 11.18,11.18c0,6.17 -5.01,11.18 -11.18,11.18zm41.27,-29.44c-10.09,0 -18.26,8.18 -18.26,18.26s8.18,18.26 18.26,18.26c10.09,0 18.26,-8.18 18.26,-18.26s-8.17,-18.26 -18.26,-18.26zm0,29.44c-6.17,0 -11.18,-5 -11.18,-11.18c0,-6.17 5,-11.18 11.18,-11.18s11.18,5 11.18,11.18c0,6.17 -5.01,11.18 -11.18,11.18zm181.65,-29.44c-10.09,0 -18.26,8.18 -18.26,18.26s8.18,18.26 18.26,18.26c10.09,0 18.26,-8.18 18.26,-18.26s-8.18,-18.26 -18.26,-18.26zm0,29.44c-6.17,0 -11.18,-5 -11.18,-11.18c0,-6.17 5,-11.18 11.18,-11.18s11.18,5 11.18,11.18c-0.01,6.17 -5.01,11.18 -11.18,11.18zm-261.33,-29.44c-4.76,0 -9.01,2.16 -11.83,5.55c-2.83,-3.39 -7.08,-5.55 -11.83,-5.55c-8.51,0 -15.41,6.9 -15.41,15.41l0,21.12l7.09,0l0,-21.13a8.32,8.32 0 0 1 8.32,-8.32c4.39,0 7.98,3.41 8.29,7.72c-0.01,0.2 -0.03,0.4 -0.03,0.6l0,21.12l7.15,0l0,-21.12c0,-0.2 -0.02,-0.4 -0.03,-0.6c0.31,-4.31 3.9,-7.72 8.29,-7.72a8.32,8.32 0 0 1 8.32,8.32l0,21.12l7.09,0l0,-21.12c-0.02,-8.51 -6.92,-15.4 -15.42,-15.4zm118.09,0c-8.51,0 -15.41,6.9 -15.41,15.41l0,21.12l7.09,0l0,-21.13a8.32,8.32 0 0 1 16.64,0l0,21.12l7.09,0l0,-21.12c0,-8.51 -6.9,-15.4 -15.41,-15.4zm37.61,0c-8.51,0 -15.41,6.9 -15.41,15.41l0,21.12l7.09,0l0,-21.13a8.32,8.32 0 0 1 8.32,-8.32l0,-7.08zm41.27,18.26c0,-10.09 -8.18,-18.26 -18.26,-18.26c-10.09,0 -18.26,8.18 -18.26,18.26s8.18,18.26 18.26,18.26c5.04,0 9.61,-2.04 12.91,-5.35l-5.01,-5.01a11.149,11.149 0 0 1 -7.9,3.27c-4.94,0 -9.12,-3.21 -10.6,-7.65l28.52,0c0.22,-1.14 0.34,-2.31 0.34,-3.52zm-18.26,-11.18c4.94,0 9.12,3.21 10.6,7.65l-21.2,0c1.48,-4.44 5.66,-7.65 10.6,-7.65zm59.65,11.18c0,-10.09 -8.18,-18.26 -18.26,-18.26c-10.09,0 -18.26,8.18 -18.26,18.26l0,32.73l7.09,0l0,-18.3c3.09,2.4 6.96,3.84 11.18,3.84c10.07,-0.01 18.25,-8.18 18.25,-18.27zm-7.09,0c0,6.17 -5,11.18 -11.18,11.18s-11.18,-5 -11.18,-11.18c0,-6.17 5,-11.18 11.18,-11.18s11.18,5.01 11.18,11.18z"/>
</svg>
