<svg viewBox="0 0 84 84" xmlns="http://www.w3.org/2000/svg">
  <path fill="currentColor" d="m68.73333,28.58l0,10.54c0,1.55 -0.83,2.98 -2.17,3.76l-11.43,6.6c-1.34,0.77 -3,0.77 -4.34,0l-11.43,-6.6a4.342,4.342 0 0 1 -2.17,-3.76l0,-13.19c0,-1.55 0.83,-2.98 2.17,-3.76l11.43,-6.6c1.34,-0.77 3,-0.77 4.34,0l3.69,2.13a36.534,36.534 0 0 0 -21.62,-7.06c-20.25,0 -36.67,16.42 -36.67,36.67s16.42,36.67 36.67,36.67s36.67,-16.42 36.67,-36.67c0.01,-6.84 -1.88,-13.24 -5.14,-18.73z"/>
  <path fill="currentColor" d="m83.13333,24.31l0,-13.19c0,-1.55 -0.83,-2.98 -2.17,-3.76l-11.43,-6.6c-1.34,-0.77 -3,-0.77 -4.34,0l-11.43,6.6a4.342,4.342 0 0 0 -2.17,3.76l0,13.19c0,1.55 0.83,2.98 2.17,3.76l11.43,6.6c1.34,0.77 3,0.77 4.34,0l11.43,-6.6a4.334,4.334 0 0 0 2.17,-3.76z"/>
</svg>
