<svg viewBox="0 0 340 51" xmlns="http://www.w3.org/2000/svg">
  <path fill="currentColor" d="m77.42,14.44c-10.09,0 -18.26,8.18 -18.26,18.26s8.18,18.26 18.26,18.26c10.09,0 18.26,-8.18 18.26,-18.26s-8.17,-18.26 -18.26,-18.26zm0,29.44c-6.17,0 -11.18,-5 -11.18,-11.18c0,-6.17 5,-11.18 11.18,-11.18s11.18,5 11.18,11.18s-5.01,11.18 -11.18,11.18zm41.27,-29.44c-10.09,0 -18.26,8.18 -18.26,18.26s8.18,18.26 18.26,18.26c10.09,0 18.26,-8.18 18.26,-18.26s-8.17,-18.26 -18.26,-18.26zm0,29.44c-6.17,0 -11.18,-5 -11.18,-11.18c0,-6.17 5,-11.18 11.18,-11.18s11.18,5 11.18,11.18s-5.01,11.18 -11.18,11.18zm-79.68,-29.44c-4.76,0 -9.01,2.16 -11.83,5.55c-2.83,-3.39 -7.08,-5.55 -11.83,-5.55c-8.51,0 -15.41,6.9 -15.41,15.41l0,21.12l7.09,0l0,-21.12a8.32,8.32 0 0 1 8.32,-8.32c4.39,0 7.98,3.41 8.29,7.72c-0.01,0.2 -0.03,0.4 -0.03,0.6l0,21.12l7.15,0l0,-21.12c0,-0.2 -0.02,-0.4 -0.03,-0.6c0.31,-4.31 3.9,-7.72 8.29,-7.72a8.32,8.32 0 0 1 8.32,8.32l0,21.12l7.09,0l0,-21.12c-0.02,-8.51 -6.92,-15.41 -15.42,-15.41zm118.09,0c-8.51,0 -15.41,6.9 -15.41,15.41l0,21.12l7.09,0l0,-21.12a8.32,8.32 0 0 1 16.64,0l0,21.12l7.09,0l0,-21.12c0,-8.51 -6.9,-15.41 -15.41,-15.41zm172.46,18.27c0,-10.09 -8.18,-18.26 -18.26,-18.26c-10.09,0 -18.26,8.18 -18.26,18.26s8.18,18.26 18.26,18.26c5.04,0 9.61,-2.04 12.91,-5.35l-5.01,-5.01a11.149,11.149 0 0 1 -7.9,3.27c-4.94,0 -9.12,-3.21 -10.6,-7.65l28.52,0c0.21,-1.14 0.34,-2.32 0.34,-3.52zm-18.27,-11.18c4.94,0 9.12,3.21 10.6,7.65l-21.2,0c1.48,-4.44 5.66,-7.65 10.6,-7.65zm-115.77,-7.09c-4.21,0 -8.09,1.44 -11.18,3.84l0,-18.3l-7.09,0l0,32.73c0,10.09 8.18,18.26 18.26,18.26c10.09,0 18.26,-8.18 18.26,-18.26s-8.16,-18.27 -18.25,-18.27zm0,29.44c-6.17,0 -11.18,-5 -11.18,-11.18c0,-6.17 5,-11.18 11.18,-11.18s11.18,5 11.18,11.18c-0.01,6.18 -5.01,11.18 -11.18,11.18zm59.53,-11.17c0,-10.09 -8.18,-18.26 -18.26,-18.26c-10.09,0 -18.26,8.18 -18.26,18.26s8.18,18.26 18.26,18.26c4.21,0 8.08,-1.44 11.18,-3.84l0,3.84l7.09,0l-0.01,-18.26zm-18.26,11.17c-6.17,0 -11.18,-5 -11.18,-11.18c0,-6.17 5,-11.18 11.18,-11.18s11.18,5 11.18,11.18s-5.01,11.18 -11.18,11.18zm52.12,-22.59l0,-6.85l-18.28,0c-5.53,0 -10,4.48 -10,10c0,4.49 2.99,8.43 7.32,9.64l11.31,3.15c1.51,0.42 2.56,1.8 2.56,3.37c0,1.93 -1.57,3.5 -3.5,3.5l-17.69,0l0,6.87l17.72,0c5.83,0 10.56,-4.73 10.56,-10.56c0,-4.74 -3.16,-8.9 -7.73,-10.17l-11.3,-3.15a2.96,2.96 0 0 1 0.8,-5.81l18.23,0l0,0.01z"/>
</svg>
