<svg xmlns="http://www.w3.org/2000/svg" fill="none" viewBox="0 0 326 100">
  <g fill="currentColor" clip-path="url(#a)">
    <path d="M206.776 22.1c-15.275 0-27.655 12.49-27.655 27.9 0 15.41 12.38 27.9 27.655 27.9s27.656-12.49 27.656-27.9c0-15.41-12.381-27.9-27.656-27.9Zm0 44.972c-9.352 0-16.923-7.65-16.923-17.072 0-9.435 7.584-17.072 16.923-17.072 9.353 0 16.923 7.65 16.923 17.072 0 9.435-7.584 17.072-16.923 17.072ZM298.345 22.1c-15.275 0-27.656 12.49-27.656 27.9 0 15.41 12.381 27.9 27.656 27.9C313.619 77.9 326 65.41 326 50c0-15.41-12.381-27.9-27.655-27.9Zm0 44.972c-9.353 0-16.923-7.65-16.923-17.072 0-9.435 7.584-17.072 16.923-17.072 9.339 0 16.922 7.65 16.922 17.072 0 9.435-7.583 17.072-16.922 17.072ZM117.07 22.1c-15.275 0-27.655 12.49-27.655 27.9v50h10.732V72.033c4.676 3.663 10.545 5.866 16.923 5.866 15.275 0 27.656-12.49 27.656-27.899 0-15.41-12.381-27.9-27.656-27.9Zm0 44.972c-9.352 0-16.923-7.65-16.923-17.072 0-9.435 7.584-17.072 16.923-17.072 9.353 0 16.923 7.65 16.923 17.072 0 9.435-7.57 17.072-16.923 17.072ZM252.346 0h-10.733v54.366c0 13.004 10.452 23.533 23.328 23.533V67.072c-6.954 0-12.595-5.69-12.595-12.706V27.521h12.595V16.694h-12.595V0Zm-76.428 22.1c-12.889 0-23.327 10.544-23.327 23.534v32.265h10.732V45.634c0-7.016 5.641-12.706 12.595-12.706V22.1ZM66.744 63.598l-4.61-14.774a21.975 21.975 0 0 1 0-13.139l4.69-15.044c.804-2.568-1.594-4.988-4.14-4.177l-14.913 4.73a21.42 21.42 0 0 1-13.024 0l-14.645-4.649c-2.6-.825-5.011 1.703-4.1 4.285l2.68 7.624a22.06 22.06 0 0 1-1.233 17.45L.392 78.82c-1.514 2.92 1.648 6.055 4.516 4.46L35.94 66.045a21.554 21.554 0 0 1 17.713-1.46l8.843 3.15c2.56.919 5.065-1.528 4.248-4.137Z"/>
  </g>
  <defs>
    <clipPath id="a">
      <path fill="#fff" d="M0 0h326v100H0z"/>
    </clipPath>
  </defs>
</svg>
