<svg xmlns="http://www.w3.org/2000/svg" xml:space="preserve" viewBox="0 0 175 40">
  <path d="M78.48038 2.25087c-10.09 0-18.26 8.18-18.26 18.26s8.18 18.26 18.26 18.26c10.09 0 18.26-8.18 18.26-18.26s-8.17-18.26-18.26-18.26zm0 29.44c-6.17 0-11.18-5-11.18-11.18 0-6.17 5-11.18 11.18-11.18s11.18 5 11.18 11.18-5.01 11.18-11.18 11.18zm41.27-29.44c-10.09 0-18.26 8.18-18.26 18.26s8.18 18.26 18.26 18.26c10.09 0 18.26-8.18 18.26-18.26s-8.17-18.26-18.26-18.26zm0 29.44c-6.17 0-11.18-5-11.18-11.18 0-6.17 5-11.18 11.18-11.18s11.18 5 11.18 11.18-5.01 11.18-11.18 11.18zm-79.68-29.44c-4.76 0-9.01 2.16-11.83 5.55-2.83-3.39-7.08-5.55-11.83-5.55-8.51 0-15.41 6.9-15.41 15.41v21.12h7.09v-21.12c0-4.59 3.72-8.32 8.32-8.32 4.39 0 7.98 3.41 8.29 7.72-.01.2-.03.4-.03.6v21.12h7.15v-21.12c0-.2-.02-.4-.03-.6.31-4.31 3.9-7.72 8.29-7.72 4.59 0 8.32 3.72 8.32 8.32v21.12h7.09v-21.12c-.02-8.51-6.92-15.41-15.42-15.41zm118.09 0c-8.51 0-15.41 6.9-15.41 15.41v21.12h7.09v-21.12c0-4.59 3.72-8.32 8.32-8.32 4.59 0 8.32 3.72 8.32 8.32v21.12h7.09v-21.12c0-8.51-6.9-15.41-15.41-15.41z" fill="currentColor"/>
</svg>
