<svg xmlns="http://www.w3.org/2000/svg" version="1.0" viewBox="12 12 128 128"><path fill="currentColor" fill-rule="evenodd" d="M40.324 40.422h2.485v-9.945h-2.485c-8.238 0-14.918 6.68-14.918 14.918v17.402a4.97 4.97 0 0 1-1.988 3.976l-5.965 4.473a4.97 4.97 0 0 0-1.984 3.774 4.97 4.97 0 0 0 1.664 3.921l6.605 5.871a4.97 4.97 0 0 1 1.668 3.715v16.532c0 8.238 6.68 14.914 14.918 14.914h2.485v-9.946h-2.485a4.97 4.97 0 0 1-4.972-4.968V88.527a14.92 14.92 0 0 0-5.008-11.148l-2.059-1.828 1.098-.824a14.91 14.91 0 0 0 5.969-11.93V45.395a4.973 4.973 0 0 1 4.972-4.973m70.297 0h-2.488v-9.945h2.488c8.238 0 14.914 6.68 14.914 14.918v17.402a4.98 4.98 0 0 0 1.988 3.976l5.97 4.473a4.99 4.99 0 0 1 1.984 3.774 4.98 4.98 0 0 1-1.665 3.921l-6.605 5.871a4.97 4.97 0 0 0-1.672 3.715v16.532c0 8.238-6.676 14.914-14.914 14.914h-2.488v-9.946h2.488a4.97 4.97 0 0 0 4.973-4.968V88.527c0-4.261 1.82-8.316 5.008-11.148l2.054-1.828-1.097-.824a14.9 14.9 0 0 1-5.965-11.93V45.395a4.973 4.973 0 0 0-4.973-4.973m0 0"/><path fill="currentColor" d="M88.155 104.326q-5.97 1.875-10.5 1.875-5.783 0-8.453-2.672-2.659-2.672-2.657-8.532V68.154h-7.297v-5.875q3.387-.094 6.047-2.407 2.672-2.31 4-5.234 1.344-2.937 2.14-6.406h7.735q-1.78 7.565-1.781 12.89h10.766l-2.141 7.032h-8.625V92.59q-.002 5.97 3.734 5.969 2.045 0 5.782-.89Zm0 0"/></svg>