<svg viewBox="0 0 174 37" xmlns="http://www.w3.org/2000/svg" xml:space="preserve">
  <path fill="currentColor" d="m77.54287,0.37586c-10.09,0 -18.26,8.18 -18.26,18.26s8.18,18.26 18.26,18.26c10.09,0 18.26,-8.18 18.26,-18.26s-8.17,-18.26 -18.26,-18.26zm0,29.44c-6.17,0 -11.18,-5 -11.18,-11.18c0,-6.17 5,-11.18 11.18,-11.18s11.18,5 11.18,11.18s-5.01,11.18 -11.18,11.18zm41.27,-29.44c-10.09,0 -18.26,8.18 -18.26,18.26s8.18,18.26 18.26,18.26c10.09,0 18.26,-8.18 18.26,-18.26s-8.17,-18.26 -18.26,-18.26zm0,29.44c-6.17,0 -11.18,-5 -11.18,-11.18c0,-6.17 5,-11.18 11.18,-11.18s11.18,5 11.18,11.18s-5.01,11.18 -11.18,11.18zm-79.68,-29.44c-4.76,0 -9.01,2.16 -11.83,5.55c-2.83,-3.39 -7.08,-5.55 -11.83,-5.55c-8.51,0 -15.41,6.9 -15.41,15.41l0,21.12l7.09,0l0,-21.12c0,-4.59 3.72,-8.32 8.32,-8.32c4.39,0 7.98,3.41 8.29,7.72c-0.01,0.2 -0.03,0.4 -0.03,0.6l0,21.12l7.15,0l0,-21.12c0,-0.2 -0.02,-0.4 -0.03,-0.6c0.31,-4.31 3.9,-7.72 8.29,-7.72c4.59,0 8.32,3.72 8.32,8.32l0,21.12l7.09,0l0,-21.12c-0.02,-8.51 -6.92,-15.41 -15.42,-15.41zm118.09,0c-8.51,0 -15.41,6.9 -15.41,15.41l0,21.12l7.09,0l0,-21.12c0,-4.59 3.72,-8.32 8.32,-8.32c4.59,0 8.32,3.72 8.32,8.32l0,21.12l7.09,0l0,-21.12c0,-8.51 -6.9,-15.41 -15.41,-15.41z"/>
</svg>
