<svg width="202" height="60" viewBox="0 0 202 60" fill="none" xmlns="http://www.w3.org/2000/svg">
<path d="M72.352 48V41.376H80.752C82.8 41.376 84.592 40.976 86.128 40.176C87.664 39.344 88.848 38.144 89.68 36.576C90.512 35.008 90.928 33.152 90.928 31.008C90.928 28.864 90.496 27.024 89.632 25.488C88.8 23.952 87.616 22.768 86.08 21.936C84.576 21.104 82.8 20.688 80.752 20.688H72.112V14.112H80.848C83.408 14.112 85.76 14.528 87.904 15.36C90.08 16.16 91.968 17.328 93.568 18.864C95.2 20.368 96.448 22.16 97.312 24.24C98.208 26.288 98.656 28.56 98.656 31.056C98.656 33.52 98.208 35.792 97.312 37.872C96.448 39.952 95.216 41.744 93.616 43.248C92.016 44.752 90.128 45.92 87.952 46.752C85.808 47.584 83.472 48 80.944 48H72.352ZM67.264 48V14.112H74.8V48H67.264ZM114.299 48.528C111.772 48.528 109.516 48.016 107.532 46.992C105.58 45.936 104.044 44.48 102.924 42.624C101.804 40.768 101.244 38.672 101.244 36.336C101.244 34 101.788 31.92 102.876 30.096C103.996 28.24 105.5 26.784 107.388 25.728C109.276 24.672 111.404 24.144 113.772 24.144C116.076 24.144 118.108 24.64 119.868 25.632C121.628 26.624 123.004 28 123.996 29.76C125.02 31.52 125.531 33.536 125.531 35.808C125.531 36.224 125.5 36.672 125.436 37.152C125.404 37.6 125.324 38.128 125.196 38.736L105.084 38.784V33.744L122.076 33.696L118.908 35.808C118.876 34.464 118.668 33.36 118.284 32.496C117.9 31.6 117.324 30.928 116.556 30.48C115.82 30 114.908 29.76 113.82 29.76C112.668 29.76 111.66 30.032 110.796 30.576C109.964 31.088 109.308 31.824 108.828 32.784C108.38 33.744 108.156 34.912 108.156 36.288C108.156 37.664 108.396 38.848 108.876 39.84C109.388 40.8 110.092 41.552 110.988 42.096C111.916 42.608 113.004 42.864 114.252 42.864C115.404 42.864 116.444 42.672 117.372 42.288C118.3 41.872 119.116 41.264 119.82 40.464L123.852 44.496C122.7 45.84 121.308 46.848 119.676 47.52C118.044 48.192 116.252 48.528 114.299 48.528ZM142.516 48.48C140.948 48.48 139.508 48.176 138.196 47.568C136.884 46.96 135.812 46.128 134.98 45.072C134.148 43.984 133.668 42.752 133.54 41.376V31.536C133.668 30.16 134.148 28.912 134.98 27.792C135.812 26.672 136.884 25.792 138.196 25.152C139.508 24.512 140.948 24.192 142.516 24.192C144.724 24.192 146.676 24.72 148.372 25.776C150.1 26.832 151.444 28.272 152.404 30.096C153.396 31.92 153.892 34 153.892 36.336C153.892 38.672 153.396 40.752 152.404 42.576C151.444 44.4 150.1 45.84 148.372 46.896C146.676 47.952 144.724 48.48 142.516 48.48ZM141.172 41.856C142.228 41.856 143.14 41.616 143.908 41.136C144.708 40.656 145.332 40 145.78 39.168C146.228 38.336 146.452 37.392 146.452 36.336C146.452 35.248 146.228 34.288 145.78 33.456C145.332 32.624 144.708 31.984 143.908 31.536C143.14 31.056 142.244 30.816 141.22 30.816C140.196 30.816 139.284 31.056 138.484 31.536C137.716 31.984 137.108 32.624 136.66 33.456C136.212 34.288 135.988 35.248 135.988 36.336C135.988 37.392 136.196 38.336 136.612 39.168C137.06 40 137.684 40.656 138.484 41.136C139.284 41.616 140.18 41.856 141.172 41.856ZM129.076 57.84V24.672H136.42V30.672L135.22 36.336L136.324 42V57.84H129.076ZM168.855 48.528C166.455 48.528 164.279 48 162.327 46.944C160.407 45.856 158.887 44.384 157.767 42.528C156.647 40.672 156.087 38.592 156.087 36.288C156.087 33.984 156.647 31.92 157.767 30.096C158.887 28.272 160.407 26.832 162.327 25.776C164.247 24.688 166.423 24.144 168.855 24.144C171.287 24.144 173.463 24.672 175.383 25.728C177.303 26.784 178.823 28.24 179.943 30.096C181.063 31.92 181.623 33.984 181.623 36.288C181.623 38.592 181.063 40.672 179.943 42.528C178.823 44.384 177.303 45.856 175.383 46.944C173.463 48 171.287 48.528 168.855 48.528ZM168.855 41.856C169.911 41.856 170.839 41.632 171.639 41.184C172.439 40.704 173.047 40.048 173.463 39.216C173.911 38.352 174.135 37.376 174.135 36.288C174.135 35.2 173.911 34.256 173.463 33.456C173.015 32.624 172.391 31.984 171.591 31.536C170.823 31.056 169.911 30.816 168.855 30.816C167.831 30.816 166.919 31.056 166.119 31.536C165.319 31.984 164.695 32.624 164.247 33.456C163.799 34.288 163.575 35.248 163.575 36.336C163.575 37.392 163.799 38.352 164.247 39.216C164.695 40.048 165.319 40.704 166.119 41.184C166.919 41.632 167.831 41.856 168.855 41.856ZM188.123 48V15.024H195.467V48H188.123ZM182.843 30.912V24.672H200.747V30.912H182.843Z" fill="currentColor"/>
<path d="M38.5 23.9333L17.5 11.8233" stroke="white" stroke-width="2.33333" stroke-linecap="round" stroke-linejoin="round"/>
<path d="M49 39.3333V20.6667C48.9992 19.8483 48.7831 19.0446 48.3736 18.336C47.964 17.6275 47.3754 17.0392 46.6667 16.63L30.3333 7.29666C29.6239 6.88708 28.8192 6.67145 28 6.67145C27.1808 6.67145 26.3761 6.88708 25.6667 7.29666L9.33333 16.63C8.62461 17.0392 8.03595 17.6275 7.62641 18.336C7.21687 19.0446 7.00084 19.8483 7 20.6667V39.3333C7.00084 40.1517 7.21687 40.9554 7.62641 41.6639C8.03595 42.3725 8.62461 42.9608 9.33333 43.37L25.6667 52.7033C26.3761 53.1129 27.1808 53.3285 28 53.3285C28.8192 53.3285 29.6239 53.1129 30.3333 52.7033L46.6667 43.37C47.3754 42.9608 47.964 42.3725 48.3736 41.6639C48.7831 40.9554 48.9992 40.1517 49 39.3333Z" stroke="currentColor" stroke-width="2.33333" stroke-linecap="round" stroke-linejoin="round"/>
<path d="M7.63 18.24L28 30.0233L48.37 18.24" stroke="currentColor" stroke-width="2.33333" stroke-linecap="round" stroke-linejoin="round"/>
<path d="M28 53.52V30" stroke="currentColor" stroke-width="2.33333" stroke-linecap="round" stroke-linejoin="round"/>
</svg>
