<svg viewBox="0 0 316 76" fill="none" xmlns="http://www.w3.org/2000/svg">
<path d="M57.9987 44.6555C57.9987 40.0009 58.706 38.8008 61.4559 38.5888V36.0509H42.2305V38.5809C48.933 38.8617 51.9319 38.0669 51.9319 43.8793L51.9531 53.1384C51.6262 54.3084 51.1223 55.4215 50.459 56.4393C49.0098 58.5587 46.6096 59.5442 43.367 59.5442C35.6842 59.5442 31.1382 51.4349 31.1382 37.4656C31.1382 23.4962 35.3239 15.1935 43.7193 15.1935C50.2073 15.1935 54.1149 19.48 55.111 28.5085H58.004V13.2013H55.2541C54.8991 14.9657 54.6183 15.4584 53.9824 15.4584C52.8539 15.4584 49.7225 12.3032 43.4438 12.3032C31.6653 12.3032 23.9058 22.8657 23.9058 37.7491C23.9058 52.7728 31.3236 62.5061 43.51 62.5061H43.5339C50.7212 62.5061 53.0128 57.7083 53.5029 56.1823L55.2276 61.8729H57.9775L57.9987 44.6555Z" fill="currentColor"/>
<path d="M252.428 55.4696C254.214 58.3997 255.215 59.2553 256.5 59.613V61.8278H248.714L234.57 37.1105H229.926V53.4694C229.926 58.3996 230.924 59.3984 235.068 59.613V61.8278H219.066V59.613C223.281 59.4699 223.994 58.8183 223.994 53.8271V21.2416C223.994 16.2399 223.281 15.5961 219.066 15.4557V13.241H236.286C245.429 13.241 250.288 17.4559 250.288 24.5982C250.288 30.5298 246.859 34.8162 240.787 36.3872L252.428 55.4696ZM229.926 34.5407H234.141C240.499 34.5407 243.712 30.9669 243.712 24.8234C243.712 18.8229 240.999 15.816 235.5 15.816H229.936L229.926 34.5407Z" fill="currentColor"/>
<path d="M280.457 13.2488H292.114V15.4636C290.758 15.8186 289.899 16.6054 288.185 20.1077L276.897 42.5386V53.2547C276.897 58.6141 278.041 59.3983 282.195 59.6129V61.8277H265.598V59.6129C269.741 59.3983 270.957 58.6141 270.957 53.2547V42.7532L259.301 20.1077C257.515 16.6054 256.728 15.8186 255.3 15.4636V13.2488H269.953V15.4636C266.597 15.747 265.449 16.2583 265.449 17.8213C265.449 18.6161 265.736 19.5354 266.665 21.464L275.252 38.8244L283.753 21.8217C284.609 20.1077 284.895 18.9632 284.895 18.0333C284.895 16.3192 283.896 15.747 280.465 15.4636L280.457 13.2488Z" fill="currentColor"/>
<path d="M107.942 61.8278V59.613C112.157 59.4699 112.869 58.8183 112.869 53.8271V21.2416C112.869 16.2399 112.157 15.5987 107.942 15.4557V13.241H124.086V15.4557C119.442 15.5987 118.788 16.8121 118.788 22.0284V53.1039C118.788 57.8195 119.583 59.2474 123.93 59.2474H129.075C134.36 59.2474 135.791 57.3188 138.435 44.8171H141.349L139.494 61.8198L107.942 61.8278Z" fill="currentColor"/>
<path d="M145.388 61.8278V59.613C149.603 59.4699 150.318 58.8183 150.318 53.8271V21.2416C150.318 16.2399 149.603 15.5987 145.388 15.4557V13.241H161.535V15.4557C156.891 15.5987 156.237 16.8121 156.237 22.0284V53.1039C156.237 57.8195 157.032 59.2474 161.382 59.2474H166.524C171.822 59.2474 173.24 57.3188 175.883 44.8171H178.819L176.964 61.8198L145.388 61.8278Z" fill="currentColor"/>
<path d="M97.8692 51.8985L85.2191 13.2463H73.5811V15.4611C78.3497 15.4611 79.2531 19.0216 78.5113 21.247L68.2906 51.978C66.2904 58.1216 65.4347 59.3349 63.1484 59.621V61.8358H76.437V59.621C72.4366 59.4779 70.8736 58.6223 70.8736 56.2644C70.8736 55.3346 71.1597 53.9781 71.6684 52.333L73.8831 45.6914H89.6725L91.7442 52.0495C92.3853 53.904 92.6714 55.263 92.6714 56.2644C92.6714 58.6223 91.1004 59.4779 87.373 59.621V61.8358H103.226V59.621C100.797 59.3269 99.872 57.9706 97.8692 51.8985ZM74.7918 42.6819L81.7222 21.6072L88.6525 42.6819H74.7918Z" fill="currentColor"/>
<path d="M213.484 47.323L212.689 61.8248H181.622V59.6101C185.837 59.467 186.549 58.8153 186.549 53.8242V21.2387C186.549 16.2369 185.837 15.5958 181.622 15.4528V13.238H212.127L212.697 25.5251H209.77C208.768 17.596 207.34 15.8078 200.553 15.8078H192.481V35.7406H198.267C203.483 35.7406 204.196 34.8848 204.625 28.3836H207.412V45.6725H204.625C204.196 39.1713 203.483 38.3129 198.267 38.3129H192.481V53.8162C192.481 58.2457 193.408 59.2445 197.694 59.2445H202.267C207.981 59.2445 209.484 56.7436 210.554 47.323H213.484Z" fill="currentColor"/>
<path d="M21.609 75.0737C-6.54165 58.4684 -6.53105 16.5974 21.609 0L23.0078 2.19881C17.267 6.17293 12.5703 11.474 9.31663 17.6518C-0.790172 36.6335 5.23682 60.7626 23.0078 72.8802L21.609 75.0791V75.0737Z" fill="currentColor"/>
<path d="M294.391 0.00219727C322.542 16.6049 322.528 58.476 294.391 75.0734L292.992 72.8745C298.732 68.9011 303.428 63.602 306.683 57.4268C316.788 38.4478 310.763 14.316 292.992 2.19842L294.391 0.00219727Z" fill="currentColor"/>
</svg>
